<svg xmlns="http://www.w3.org/2000/svg" xmlns:xlink="http://www.w3.org/1999/xlink" width="37" height="37" viewBox="0 0 37 37">
    <defs>
        <path id="a" d="M0 0h37v37H0V0z"/>
    </defs>
    <g fill="none" fill-rule="evenodd">
        <mask id="b" fill="#fff">
            <use xlink:href="#a"/>
        </mask>
        <path fill="#D43B3B" d="M9.46.681L.36.867c-.49 1.798-.003.888-.002 2.765l-.001 3.4C.282 8.013.022 8.513.022 9.826c0 .442-.098 1.456.116 1.802.38.613.37 1.132.53 2.018.141.787.296.704-.062 1.297L.44 16.446l.777.756.006 1.32c-.463.421.055.121-.923.822l.087 3.988.964.695-.202 3.4c-1.016.723-.798 1.6-.765 2.5l.124 3.391-.223 1.737c2.278.57 1.778.393 4.382.393 2.3 0 2.003.023 4.278-.251l.058.385c.353-.023.717-.042 1.064-.076.968-.093.581-.204.914-.324.241-.086 2.834.511 3.256.601.232-.258.114-.154.438-.362.176.368.926 1.212 1.231 1.579l.94-.875 1.642.633.482-.402c.187.22.302.497.636.54.488.064.568-.738 1.644-.759l6.24-.206.214-.206.319-.258c.41.246.585.482 1.147.445 1.721-.114.82.413 3.042.295.383-.02.287-.114.625-.232l.721-.11c-.156-.418-.257-.36-.568-.67l3.953.793c-.053-4.62-.043-10.256.016-15.01l-1.063.08c.038-.309.502-.193.538-.813.046-.782.038-3.459-.077-4.03-.059-.293-.808-1.145-1.009-1.41.239-.644.262-.602.704-1.126-.037-.346-.119-.438-.268-.831l1.158-.377c.013-.662.088-3.316.045-4.155l-.47-4.533.359-1.133.015-1.164c-1-.573-.87-.636-1.564-.631-.624.004-1.464-.029-2.062-.165-.767-.174-.561-.298-1.402.56L31.48.423C30.28.336 26.428.002 25.512.002c-1.17 0-1 .087-1.397 1.407l-1.68.171L22.21.86 20.688.84l.162-.176c.297-.282.193-.168.426-.665h-6.125c-.203.372-.573.655-1.009.799-.61.201-.308-.123-.693.22-.289.257-.339.241-.794.232a87.192 87.192 0 0 1-1.826-.056c-.278-.012-.584.016-.852-.047-.412-.096-.292-.202-.517-.467M4.142 7.183c.597-.333.915-.08 1.921-.804.27-.194.89-.175 1.268-.124.39.054 1.29.798 1.702 1.05.238.145 1.311.959 1.486 1.24l.53.85c.73.035.602-.007 1.524.663l8.82 5.779c1.897 1.308 4.11 2.645 6.017 3.964l5.436 3.533c-.156.335-.34 1.49-.443 1.952-.47 2.122-1.063 3.021-2.022 5.062-1.377.053-2.464.043-3.81.022-.436-.007-.329.083-.567-.146-.788-.758-2.221-2.422-3.018-3.19a23.252 23.252 0 0 1-.796-.802c-2.203-2.331-1.16-1.629-1.592-2.209l-4.433-4.161c-1.018-.983-1.935-2.041-2.988-3.148-.27-.284-.405-.552-.687-.81l-.078-.07c-.075-.073-.047-.043-.117-.123l-1.288-1.453c-.226-.209-.205-.202-.371-.39l-1.159-1.186c-.254-.265-.453-.54-.695-.826L7.675 10.69c-.165-.166-.285-.215-.447-.383-.526-.545-.969-1.066-1.501-1.61-.426-.434-1.462-1.27-1.585-1.514M27.49 6.28c.585.202 2.003 1.006 2.35 1.439.293.364.209.397.1.922l-.576 4.48c-.799.03-.568-.065-1.063-.395-.83-.553-3.68-2.643-4.595-3.375l-1.76-1.404c.13-.12-.044-.057.25-.133l2.603-.583c1.357-.337 1.567-.426 2.691-.951M7.062 22.097c.363.225.597.447.948.728l2.843 2.618c.593.56 2.112 2.082 2.695 2.757.399.46.572.51.865.964-.108.04-1.436.342-2.209.606-1.608.55-3.073 1.43-4.474.958-.21-.07-1.163-.975-1.6-1.28l-.803-.559c-.852-.591-1.097-.184.036-2.804.296-.685.547-1.302.829-1.973.246-.587.585-1.535.87-2.015" mask="url(#b)"/>
    </g>
</svg>
